<svg width="504" height="439" viewBox="0 0 504 439" fill="none" xmlns="http://www.w3.org/2000/svg">
<g clip-path="url(#clip0_344_273)">
<path fill-rule="evenodd" clip-rule="evenodd" d="M54.9396 60.9437C82.575 31.8355 133.923 28.4469 178.889 48.9552C215.153 65.495 242.591 91.3978 278.223 105.841C326.552 125.431 387.866 106.431 422.506 147.702C456.147 187.782 444.933 245.221 432.131 289.208C420.655 328.638 389.033 354.517 355.929 376.453C327.042 395.594 292.988 404.908 256.002 405.914C219.742 406.9 181.557 403.123 147.917 382.11C114.636 361.322 92.0497 327.133 74.2009 292.354C56.7207 258.292 48.7313 198.198 47.8016 187.029C44.1356 142.985 27.3099 90.0459 54.9396 60.9437Z" fill="url(#paint0_linear_344_273)"/>
<path d="M135.694 140.041V237.941C140.984 237.941 144.89 239.121 147.413 241.481C149.936 243.76 151.197 246.73 151.197 250.393C151.197 254.055 149.895 257.066 147.291 259.426C144.768 261.786 140.903 262.966 135.694 262.966V272.976C140.984 272.976 144.89 274.156 147.413 276.516C149.936 278.876 151.197 281.887 151.197 285.549C151.197 289.211 149.895 292.222 147.291 294.582C144.768 296.861 140.496 298 134.474 298H100.904C94.8822 298 90.569 296.861 87.9648 294.582C85.4421 292.222 84.1807 289.17 84.1807 285.427C84.1807 281.765 85.4421 278.794 87.9648 276.516C90.569 274.156 94.8822 272.976 100.904 272.976H110.67V262.966H42.6768V242.092L102.613 140.041H135.694ZM110.67 237.941V176.418L74.415 237.941H110.67ZM303.785 205.104V232.57C303.785 248.846 299.065 264.431 289.625 279.323C280.266 294.216 266.839 301.662 249.342 301.662C239.251 301.662 230.706 299.465 223.707 295.07C216.79 290.594 210.198 282.416 203.932 270.534C197.747 258.571 194.654 245.917 194.654 232.57V205.104C194.654 188.91 199.334 173.366 208.692 158.474C218.051 143.5 231.479 136.013 248.976 136.013C258.985 136.013 267.449 138.21 274.366 142.604C281.365 146.999 287.997 155.178 294.264 167.141C300.611 179.022 303.785 191.677 303.785 205.104ZM278.639 205.104C278.639 191.514 274.854 179.632 267.286 169.46C262.973 163.845 256.91 161.037 249.098 161.037C241.529 161.037 235.344 164.13 230.543 170.314C223.3 179.673 219.679 191.27 219.679 205.104V232.57C219.679 246.242 223.504 258.124 231.153 268.215C235.385 273.83 241.448 276.638 249.342 276.638C256.829 276.638 262.973 273.545 267.774 267.36C275.017 258.002 278.639 246.405 278.639 232.57V205.104ZM435.987 140.041V237.941C441.277 237.941 445.183 239.121 447.706 241.481C450.229 243.76 451.49 246.73 451.49 250.393C451.49 254.055 450.188 257.066 447.584 259.426C445.061 261.786 441.196 262.966 435.987 262.966V272.976C441.277 272.976 445.183 274.156 447.706 276.516C450.229 278.876 451.49 281.887 451.49 285.549C451.49 289.211 450.188 292.222 447.584 294.582C445.061 296.861 440.789 298 434.767 298H401.197C395.175 298 390.862 296.861 388.258 294.582C385.735 292.222 384.474 289.17 384.474 285.427C384.474 281.765 385.735 278.794 388.258 276.516C390.862 274.156 395.175 272.976 401.197 272.976H410.963V262.966H342.97V242.092L402.906 140.041H435.987ZM410.963 237.941V176.418L374.708 237.941H410.963Z" fill="black"/>
<path d="M135.694 140.041H139.194V136.541H135.694V140.041ZM135.694 237.941H132.194V241.441H135.694V237.941ZM147.413 241.481L145.022 244.037L145.044 244.058L145.067 244.079L147.413 241.481ZM147.291 259.426L144.941 256.832L144.92 256.851L144.9 256.87L147.291 259.426ZM135.694 262.966V259.466H132.194V262.966H135.694ZM135.694 272.976H132.194V276.476H135.694V272.976ZM147.413 276.516L145.022 279.072L147.413 276.516ZM147.291 294.582L149.637 297.179L149.641 297.175L147.291 294.582ZM87.9648 294.582L85.5738 297.138L85.6163 297.178L85.6601 297.216L87.9648 294.582ZM87.9648 276.516L90.3108 279.113L90.3152 279.109L87.9648 276.516ZM110.67 272.976V276.476H114.17V272.976H110.67ZM110.67 262.966H114.17V259.466H110.67V262.966ZM42.6768 262.966H39.1768V266.466H42.6768V262.966ZM42.6768 242.092L39.6588 240.319L39.1768 241.14V242.092H42.6768ZM102.613 140.041V136.541H100.61L99.5953 138.268L102.613 140.041ZM110.67 237.941V241.441H114.17V237.941H110.67ZM110.67 176.418H114.17V163.585L107.655 174.641L110.67 176.418ZM74.415 237.941L71.3997 236.164L68.29 241.441H74.415V237.941ZM132.194 140.041V237.941H139.194V140.041H132.194ZM135.694 241.441C140.554 241.441 143.419 242.537 145.022 244.037L149.804 238.925C146.362 235.705 141.414 234.441 135.694 234.441V241.441ZM145.067 244.079C146.794 245.638 147.697 247.635 147.697 250.393H154.697C154.697 245.826 153.078 241.882 149.759 238.884L145.067 244.079ZM147.697 250.393C147.697 253.114 146.779 255.167 144.941 256.832L149.641 262.019C153.012 258.965 154.697 254.996 154.697 250.393H147.697ZM144.9 256.87C143.288 258.378 140.455 259.466 135.694 259.466V266.466C141.35 266.466 146.248 265.194 149.682 261.982L144.9 256.87ZM132.194 262.966V272.976H139.194V262.966H132.194ZM135.694 276.476C140.554 276.476 143.419 277.572 145.022 279.072L149.804 273.96C146.362 270.74 141.414 269.476 135.694 269.476V276.476ZM145.022 279.072C146.791 280.726 147.697 282.79 147.697 285.549H154.697C154.697 280.983 153.081 277.025 149.804 273.96L145.022 279.072ZM147.697 285.549C147.697 288.27 146.779 290.323 144.941 291.989L149.641 297.175C153.012 294.121 154.697 290.152 154.697 285.549H147.697ZM144.945 291.985C143.406 293.375 140.235 294.5 134.474 294.5V301.5C140.756 301.5 146.131 300.346 149.637 297.179L144.945 291.985ZM134.474 294.5H100.904V301.5H134.474V294.5ZM100.904 294.5C95.1587 294.5 91.9079 293.382 90.2696 291.948L85.6601 297.216C89.2301 300.34 94.6057 301.5 100.904 301.5V294.5ZM90.3559 292.026C88.6039 290.387 87.6807 288.292 87.6807 285.427H80.6807C80.6807 290.049 82.2802 294.057 85.5738 297.138L90.3559 292.026ZM87.6807 285.427C87.6807 282.669 88.5842 280.673 90.3108 279.113L85.6188 273.918C82.2999 276.916 80.6807 280.861 80.6807 285.427H87.6807ZM90.3152 279.109C91.9506 277.627 95.1801 276.476 100.904 276.476V269.476C94.5843 269.476 89.1874 270.684 85.6145 273.922L90.3152 279.109ZM100.904 276.476H110.67V269.476H100.904V276.476ZM114.17 272.976V262.966H107.17V272.976H114.17ZM110.67 259.466H42.6768V266.466H110.67V259.466ZM46.1768 262.966V242.092H39.1768V262.966H46.1768ZM45.6947 243.864L105.631 141.814L99.5953 138.268L39.6588 240.319L45.6947 243.864ZM102.613 143.541H135.694V136.541H102.613V143.541ZM114.17 237.941V176.418H107.17V237.941H114.17ZM107.655 174.641L71.3997 236.164L77.4304 239.718L113.685 178.195L107.655 174.641ZM74.415 241.441H110.67V234.441H74.415V241.441ZM289.625 279.323L286.669 277.449L286.662 277.461L289.625 279.323ZM223.707 295.07L221.806 298.009L221.826 298.022L221.846 298.034L223.707 295.07ZM203.932 270.534L200.823 272.142L200.829 272.154L200.836 272.167L203.932 270.534ZM208.692 158.474L211.656 160.336L211.66 160.329L208.692 158.474ZM274.366 142.604L272.489 145.559L272.497 145.564L272.505 145.569L274.366 142.604ZM294.264 167.141L291.163 168.765L291.17 168.777L291.177 168.79L294.264 167.141ZM267.286 169.46L270.094 167.371L270.078 167.349L270.062 167.328L267.286 169.46ZM230.543 170.314L227.778 168.168L227.775 168.172L230.543 170.314ZM231.153 268.215L233.948 266.108L233.942 266.1L231.153 268.215ZM267.774 267.36L270.539 269.507L270.542 269.502L267.774 267.36ZM300.285 205.104V232.57H307.285V205.104H300.285ZM300.285 232.57C300.285 248.128 295.785 263.069 286.669 277.449L292.581 281.197C302.346 265.793 307.285 249.565 307.285 232.57H300.285ZM286.662 277.461C277.939 291.341 265.627 298.162 249.342 298.162V305.162C268.05 305.162 282.593 297.091 292.588 281.186L286.662 277.461ZM249.342 298.162C239.763 298.162 231.897 296.08 225.568 292.106L221.846 298.034C229.514 302.849 238.738 305.162 249.342 305.162V298.162ZM225.608 292.132C219.417 288.126 213.171 280.551 207.027 268.901L200.836 272.167C207.224 284.28 214.162 293.063 221.806 298.009L225.608 292.132ZM207.041 268.927C201.11 257.456 198.154 245.352 198.154 232.57H191.154C191.154 246.481 194.383 259.687 200.823 272.142L207.041 268.927ZM198.154 232.57V205.104H191.154V232.57H198.154ZM198.154 205.104C198.154 189.625 202.616 174.721 211.656 160.336L205.729 156.611C196.051 172.012 191.154 188.194 191.154 205.104H198.154ZM211.66 160.329C220.387 146.366 232.699 139.513 248.976 139.513V132.513C230.259 132.513 215.715 140.633 205.724 156.619L211.66 160.329ZM248.976 139.513C258.468 139.513 266.246 141.592 272.489 145.559L276.243 139.65C268.652 134.828 259.502 132.513 248.976 132.513V139.513ZM272.505 145.569C278.746 149.487 285.021 157.039 291.163 168.765L297.364 165.517C290.974 153.317 283.984 144.511 276.227 139.64L272.505 145.569ZM291.177 168.79C297.254 180.166 300.285 192.254 300.285 205.104H307.285C307.285 191.099 303.969 177.879 297.351 165.491L291.177 168.79ZM282.139 205.104C282.139 190.819 278.145 178.192 270.094 167.371L264.478 171.549C271.564 181.073 275.139 192.209 275.139 205.104H282.139ZM270.062 167.328C265.011 160.753 257.869 157.537 249.098 157.537V164.537C255.952 164.537 260.935 166.937 264.51 171.592L270.062 167.328ZM249.098 157.537C240.405 157.537 233.216 161.164 227.778 168.168L233.308 172.461C237.473 167.095 242.653 164.537 249.098 164.537V157.537ZM227.775 168.172C219.98 178.244 216.179 190.631 216.179 205.104H223.179C223.179 191.909 226.62 181.102 233.311 172.457L227.775 168.172ZM216.179 205.104V232.57H223.179V205.104H216.179ZM216.179 232.57C216.179 246.941 220.216 259.58 228.364 270.329L233.942 266.1C226.792 256.667 223.179 245.543 223.179 232.57H216.179ZM228.358 270.321C233.339 276.931 240.504 280.138 249.342 280.138V273.138C242.392 273.138 237.431 270.73 233.948 266.108L228.358 270.321ZM249.342 280.138C257.966 280.138 265.11 276.5 270.539 269.507L265.01 265.214C260.836 270.59 255.691 273.138 249.342 273.138V280.138ZM270.542 269.502C278.337 259.431 282.139 247.044 282.139 232.57H275.139C275.139 245.766 271.698 256.573 265.007 265.218L270.542 269.502ZM282.139 232.57V205.104H275.139V232.57H282.139ZM435.987 140.041H439.487V136.541H435.987V140.041ZM435.987 237.941H432.487V241.441H435.987V237.941ZM447.706 241.481L445.315 244.037L445.337 244.058L445.36 244.079L447.706 241.481ZM447.584 259.426L445.234 256.832L445.213 256.851L445.193 256.87L447.584 259.426ZM435.987 262.966V259.466H432.487V262.966H435.987ZM435.987 272.976H432.487V276.476H435.987V272.976ZM447.706 276.516L445.315 279.072L447.706 276.516ZM447.584 294.582L449.93 297.179L449.934 297.175L447.584 294.582ZM388.258 294.582L385.867 297.138L385.909 297.178L385.953 297.216L388.258 294.582ZM388.258 276.516L390.604 279.113L390.608 279.109L388.258 276.516ZM410.963 272.976V276.476H414.463V272.976H410.963ZM410.963 262.966H414.463V259.466H410.963V262.966ZM342.97 262.966H339.47V266.466H342.97V262.966ZM342.97 242.092L339.952 240.319L339.47 241.14V242.092H342.97ZM402.906 140.041V136.541H400.903L399.888 138.268L402.906 140.041ZM410.963 237.941V241.441H414.463V237.941H410.963ZM410.963 176.418H414.463V163.585L407.948 174.641L410.963 176.418ZM374.708 237.941L371.693 236.164L368.583 241.441H374.708V237.941ZM432.487 140.041V237.941H439.487V140.041H432.487ZM435.987 241.441C440.847 241.441 443.711 242.537 445.315 244.037L450.097 238.925C446.655 235.705 441.707 234.441 435.987 234.441V241.441ZM445.36 244.079C447.087 245.638 447.99 247.635 447.99 250.393H454.99C454.99 245.826 453.371 241.882 450.052 238.884L445.36 244.079ZM447.99 250.393C447.99 253.114 447.072 255.167 445.234 256.832L449.934 262.019C453.305 258.965 454.99 254.996 454.99 250.393H447.99ZM445.193 256.87C443.581 258.378 440.748 259.466 435.987 259.466V266.466C441.643 266.466 446.541 265.194 449.975 261.982L445.193 256.87ZM432.487 262.966V272.976H439.487V262.966H432.487ZM435.987 276.476C440.847 276.476 443.711 277.572 445.315 279.072L450.097 273.96C446.655 270.74 441.707 269.476 435.987 269.476V276.476ZM445.315 279.072C447.084 280.726 447.99 282.79 447.99 285.549H454.99C454.99 280.983 453.374 277.025 450.097 273.96L445.315 279.072ZM447.99 285.549C447.99 288.27 447.072 290.323 445.234 291.989L449.934 297.175C453.305 294.121 454.99 290.152 454.99 285.549H447.99ZM445.238 291.985C443.699 293.375 440.528 294.5 434.767 294.5V301.5C441.049 301.5 446.424 300.346 449.93 297.179L445.238 291.985ZM434.767 294.5H401.197V301.5H434.767V294.5ZM401.197 294.5C395.452 294.5 392.201 293.382 390.563 291.948L385.953 297.216C389.523 300.34 394.899 301.5 401.197 301.5V294.5ZM390.649 292.026C388.897 290.387 387.974 288.292 387.974 285.427H380.974C380.974 290.049 382.573 294.057 385.867 297.138L390.649 292.026ZM387.974 285.427C387.974 282.669 388.877 280.673 390.604 279.113L385.912 273.918C382.593 276.916 380.974 280.861 380.974 285.427H387.974ZM390.608 279.109C392.244 277.627 395.473 276.476 401.197 276.476V269.476C394.877 269.476 389.48 270.684 385.907 273.922L390.608 279.109ZM401.197 276.476H410.963V269.476H401.197V276.476ZM414.463 272.976V262.966H407.463V272.976H414.463ZM410.963 259.466H342.97V266.466H410.963V259.466ZM346.47 262.966V242.092H339.47V262.966H346.47ZM345.988 243.864L405.924 141.814L399.888 138.268L339.952 240.319L345.988 243.864ZM402.906 143.541H435.987V136.541H402.906V143.541ZM414.463 237.941V176.418H407.463V237.941H414.463ZM407.948 174.641L371.693 236.164L377.723 239.718L413.978 178.195L407.948 174.641ZM374.708 241.441H410.963V234.441H374.708V241.441Z" fill="#050206"/>
<path d="M128.694 135.041V232.941C133.984 232.941 137.89 234.121 140.413 236.481C142.936 238.76 144.197 241.73 144.197 245.393C144.197 249.055 142.895 252.066 140.291 254.426C137.768 256.786 133.903 257.966 128.694 257.966V267.976C133.984 267.976 137.89 269.156 140.413 271.516C142.936 273.876 144.197 276.887 144.197 280.549C144.197 284.211 142.895 287.222 140.291 289.582C137.768 291.861 133.496 293 127.474 293H93.9043C87.8822 293 83.569 291.861 80.9648 289.582C78.4421 287.222 77.1807 284.17 77.1807 280.427C77.1807 276.765 78.4421 273.794 80.9648 271.516C83.569 269.156 87.8822 267.976 93.9043 267.976H103.67V257.966H35.6768V237.092L95.6133 135.041H128.694ZM103.67 232.941V171.418L67.415 232.941H103.67ZM296.785 200.104V227.57C296.785 243.846 292.065 259.431 282.625 274.323C273.266 289.216 259.839 296.662 242.342 296.662C232.251 296.662 223.706 294.465 216.707 290.07C209.79 285.594 203.198 277.416 196.932 265.534C190.747 253.571 187.654 240.917 187.654 227.57V200.104C187.654 183.91 192.334 168.366 201.692 153.474C211.051 138.5 224.479 131.013 241.976 131.013C251.985 131.013 260.449 133.21 267.366 137.604C274.365 141.999 280.997 150.178 287.264 162.141C293.611 174.022 296.785 186.677 296.785 200.104ZM271.639 200.104C271.639 186.514 267.854 174.632 260.286 164.46C255.973 158.845 249.91 156.037 242.098 156.037C234.529 156.037 228.344 159.13 223.543 165.314C216.3 174.673 212.679 186.27 212.679 200.104V227.57C212.679 241.242 216.504 253.124 224.153 263.215C228.385 268.83 234.448 271.638 242.342 271.638C249.829 271.638 255.973 268.545 260.774 262.36C268.017 253.002 271.639 241.405 271.639 227.57V200.104ZM428.987 135.041V232.941C434.277 232.941 438.183 234.121 440.706 236.481C443.229 238.76 444.49 241.73 444.49 245.393C444.49 249.055 443.188 252.066 440.584 254.426C438.061 256.786 434.196 257.966 428.987 257.966V267.976C434.277 267.976 438.183 269.156 440.706 271.516C443.229 273.876 444.49 276.887 444.49 280.549C444.49 284.211 443.188 287.222 440.584 289.582C438.061 291.861 433.789 293 427.767 293H394.197C388.175 293 383.862 291.861 381.258 289.582C378.735 287.222 377.474 284.17 377.474 280.427C377.474 276.765 378.735 273.794 381.258 271.516C383.862 269.156 388.175 267.976 394.197 267.976H403.963V257.966H335.97V237.092L395.906 135.041H428.987ZM403.963 232.941V171.418L367.708 232.941H403.963Z" fill="white"/>
<path d="M128.694 135.041H132.194V131.541H128.694V135.041ZM128.694 232.941H125.194V236.441H128.694V232.941ZM140.413 236.481L138.022 239.037L138.044 239.058L138.067 239.079L140.413 236.481ZM140.291 254.426L137.941 251.832L137.92 251.851L137.9 251.87L140.291 254.426ZM128.694 257.966V254.466H125.194V257.966H128.694ZM128.694 267.976H125.194V271.476H128.694V267.976ZM140.413 271.516L138.022 274.072L140.413 271.516ZM140.291 289.582L142.637 292.179L142.641 292.175L140.291 289.582ZM80.9648 289.582L78.5738 292.138L78.6163 292.178L78.6601 292.216L80.9648 289.582ZM80.9648 271.516L83.3108 274.113L83.3152 274.109L80.9648 271.516ZM103.67 267.976V271.476H107.17V267.976H103.67ZM103.67 257.966H107.17V254.466H103.67V257.966ZM35.6768 257.966H32.1768V261.466H35.6768V257.966ZM35.6768 237.092L32.6588 235.319L32.1768 236.14V237.092H35.6768ZM95.6133 135.041V131.541H93.6099L92.5953 133.268L95.6133 135.041ZM103.67 232.941V236.441H107.17V232.941H103.67ZM103.67 171.418H107.17V158.585L100.655 169.641L103.67 171.418ZM67.415 232.941L64.3997 231.164L61.29 236.441H67.415V232.941ZM125.194 135.041V232.941H132.194V135.041H125.194ZM128.694 236.441C133.554 236.441 136.419 237.537 138.022 239.037L142.804 233.925C139.362 230.705 134.414 229.441 128.694 229.441V236.441ZM138.067 239.079C139.794 240.638 140.697 242.635 140.697 245.393H147.697C147.697 240.826 146.078 236.882 142.759 233.884L138.067 239.079ZM140.697 245.393C140.697 248.114 139.779 250.167 137.941 251.832L142.641 257.019C146.012 253.965 147.697 249.996 147.697 245.393H140.697ZM137.9 251.87C136.288 253.378 133.455 254.466 128.694 254.466V261.466C134.35 261.466 139.248 260.194 142.682 256.982L137.9 251.87ZM125.194 257.966V267.976H132.194V257.966H125.194ZM128.694 271.476C133.554 271.476 136.419 272.572 138.022 274.072L142.804 268.96C139.362 265.74 134.414 264.476 128.694 264.476V271.476ZM138.022 274.072C139.791 275.726 140.697 277.79 140.697 280.549H147.697C147.697 275.983 146.081 272.025 142.804 268.96L138.022 274.072ZM140.697 280.549C140.697 283.27 139.779 285.323 137.941 286.989L142.641 292.175C146.012 289.121 147.697 285.152 147.697 280.549H140.697ZM137.945 286.985C136.406 288.375 133.235 289.5 127.474 289.5V296.5C133.756 296.5 139.131 295.346 142.637 292.179L137.945 286.985ZM127.474 289.5H93.9043V296.5H127.474V289.5ZM93.9043 289.5C88.1587 289.5 84.9079 288.382 83.2696 286.948L78.6601 292.216C82.2301 295.34 87.6057 296.5 93.9043 296.5V289.5ZM83.3559 287.026C81.6039 285.387 80.6807 283.292 80.6807 280.427H73.6807C73.6807 285.049 75.2802 289.057 78.5738 292.138L83.3559 287.026ZM80.6807 280.427C80.6807 277.669 81.5842 275.673 83.3108 274.113L78.6188 268.918C75.2999 271.916 73.6807 275.861 73.6807 280.427H80.6807ZM83.3152 274.109C84.9506 272.627 88.1801 271.476 93.9043 271.476V264.476C87.5843 264.476 82.1874 265.684 78.6145 268.922L83.3152 274.109ZM93.9043 271.476H103.67V264.476H93.9043V271.476ZM107.17 267.976V257.966H100.17V267.976H107.17ZM103.67 254.466H35.6768V261.466H103.67V254.466ZM39.1768 257.966V237.092H32.1768V257.966H39.1768ZM38.6947 238.864L98.6313 136.814L92.5953 133.268L32.6588 235.319L38.6947 238.864ZM95.6133 138.541H128.694V131.541H95.6133V138.541ZM107.17 232.941V171.418H100.17V232.941H107.17ZM100.655 169.641L64.3997 231.164L70.4304 234.718L106.685 173.195L100.655 169.641ZM67.415 236.441H103.67V229.441H67.415V236.441ZM282.625 274.323L279.669 272.449L279.662 272.461L282.625 274.323ZM216.707 290.07L214.806 293.009L214.826 293.022L214.846 293.034L216.707 290.07ZM196.932 265.534L193.823 267.142L193.829 267.154L193.836 267.167L196.932 265.534ZM201.692 153.474L204.656 155.336L204.66 155.329L201.692 153.474ZM267.366 137.604L265.489 140.559L265.497 140.564L265.505 140.569L267.366 137.604ZM287.264 162.141L284.163 163.765L284.17 163.777L284.177 163.79L287.264 162.141ZM260.286 164.46L263.094 162.371L263.078 162.349L263.062 162.328L260.286 164.46ZM223.543 165.314L220.778 163.168L220.775 163.172L223.543 165.314ZM224.153 263.215L226.948 261.108L226.942 261.1L224.153 263.215ZM260.774 262.36L263.539 264.507L263.542 264.502L260.774 262.36ZM293.285 200.104V227.57H300.285V200.104H293.285ZM293.285 227.57C293.285 243.128 288.785 258.069 279.669 272.449L285.581 276.197C295.346 260.793 300.285 244.565 300.285 227.57H293.285ZM279.662 272.461C270.939 286.341 258.627 293.162 242.342 293.162V300.162C261.05 300.162 275.593 292.091 285.588 276.186L279.662 272.461ZM242.342 293.162C232.763 293.162 224.897 291.08 218.568 287.106L214.846 293.034C222.514 297.849 231.738 300.162 242.342 300.162V293.162ZM218.608 287.132C212.417 283.126 206.171 275.551 200.027 263.901L193.836 267.167C200.224 279.28 207.162 288.063 214.806 293.009L218.608 287.132ZM200.041 263.927C194.11 252.456 191.154 240.352 191.154 227.57H184.154C184.154 241.481 187.383 254.687 193.823 267.142L200.041 263.927ZM191.154 227.57V200.104H184.154V227.57H191.154ZM191.154 200.104C191.154 184.625 195.616 169.721 204.656 155.336L198.729 151.611C189.051 167.012 184.154 183.194 184.154 200.104H191.154ZM204.66 155.329C213.387 141.366 225.699 134.513 241.976 134.513V127.513C223.259 127.513 208.715 135.633 198.724 151.619L204.66 155.329ZM241.976 134.513C251.468 134.513 259.246 136.592 265.489 140.559L269.243 134.65C261.652 129.828 252.502 127.513 241.976 127.513V134.513ZM265.505 140.569C271.746 144.487 278.021 152.039 284.163 163.765L290.364 160.517C283.974 148.317 276.984 139.511 269.227 134.64L265.505 140.569ZM284.177 163.79C290.254 175.166 293.285 187.254 293.285 200.104H300.285C300.285 186.099 296.969 172.879 290.351 160.491L284.177 163.79ZM275.139 200.104C275.139 185.819 271.145 173.192 263.094 162.371L257.478 166.549C264.564 176.073 268.139 187.209 268.139 200.104H275.139ZM263.062 162.328C258.011 155.753 250.869 152.537 242.098 152.537V159.537C248.952 159.537 253.935 161.937 257.51 166.592L263.062 162.328ZM242.098 152.537C233.405 152.537 226.216 156.164 220.778 163.168L226.308 167.461C230.473 162.095 235.653 159.537 242.098 159.537V152.537ZM220.775 163.172C212.98 173.244 209.179 185.631 209.179 200.104H216.179C216.179 186.909 219.62 176.102 226.311 167.457L220.775 163.172ZM209.179 200.104V227.57H216.179V200.104H209.179ZM209.179 227.57C209.179 241.941 213.216 254.58 221.364 265.329L226.942 261.1C219.792 251.667 216.179 240.543 216.179 227.57H209.179ZM221.358 265.321C226.339 271.931 233.504 275.138 242.342 275.138V268.138C235.392 268.138 230.431 265.73 226.948 261.108L221.358 265.321ZM242.342 275.138C250.966 275.138 258.11 271.5 263.539 264.507L258.01 260.214C253.836 265.59 248.691 268.138 242.342 268.138V275.138ZM263.542 264.502C271.337 254.431 275.139 242.044 275.139 227.57H268.139C268.139 240.766 264.698 251.573 258.007 260.218L263.542 264.502ZM275.139 227.57V200.104H268.139V227.57H275.139ZM428.987 135.041H432.487V131.541H428.987V135.041ZM428.987 232.941H425.487V236.441H428.987V232.941ZM440.706 236.481L438.315 239.037L438.337 239.058L438.36 239.079L440.706 236.481ZM440.584 254.426L438.234 251.832L438.213 251.851L438.193 251.87L440.584 254.426ZM428.987 257.966V254.466H425.487V257.966H428.987ZM428.987 267.976H425.487V271.476H428.987V267.976ZM440.706 271.516L438.315 274.072L440.706 271.516ZM440.584 289.582L442.93 292.179L442.934 292.175L440.584 289.582ZM381.258 289.582L378.867 292.138L378.909 292.178L378.953 292.216L381.258 289.582ZM381.258 271.516L383.604 274.113L383.608 274.109L381.258 271.516ZM403.963 267.976V271.476H407.463V267.976H403.963ZM403.963 257.966H407.463V254.466H403.963V257.966ZM335.97 257.966H332.47V261.466H335.97V257.966ZM335.97 237.092L332.952 235.319L332.47 236.14V237.092H335.97ZM395.906 135.041V131.541H393.903L392.888 133.268L395.906 135.041ZM403.963 232.941V236.441H407.463V232.941H403.963ZM403.963 171.418H407.463V158.585L400.948 169.641L403.963 171.418ZM367.708 232.941L364.693 231.164L361.583 236.441H367.708V232.941ZM425.487 135.041V232.941H432.487V135.041H425.487ZM428.987 236.441C433.847 236.441 436.711 237.537 438.315 239.037L443.097 233.925C439.655 230.705 434.707 229.441 428.987 229.441V236.441ZM438.36 239.079C440.087 240.638 440.99 242.635 440.99 245.393H447.99C447.99 240.826 446.371 236.882 443.052 233.884L438.36 239.079ZM440.99 245.393C440.99 248.114 440.072 250.167 438.234 251.832L442.934 257.019C446.305 253.965 447.99 249.996 447.99 245.393H440.99ZM438.193 251.87C436.581 253.378 433.748 254.466 428.987 254.466V261.466C434.643 261.466 439.541 260.194 442.975 256.982L438.193 251.87ZM425.487 257.966V267.976H432.487V257.966H425.487ZM428.987 271.476C433.847 271.476 436.711 272.572 438.315 274.072L443.097 268.96C439.655 265.74 434.707 264.476 428.987 264.476V271.476ZM438.315 274.072C440.084 275.726 440.99 277.79 440.99 280.549H447.99C447.99 275.983 446.374 272.025 443.097 268.96L438.315 274.072ZM440.99 280.549C440.99 283.27 440.072 285.323 438.234 286.989L442.934 292.175C446.305 289.121 447.99 285.152 447.99 280.549H440.99ZM438.238 286.985C436.699 288.375 433.528 289.5 427.767 289.5V296.5C434.049 296.5 439.424 295.346 442.93 292.179L438.238 286.985ZM427.767 289.5H394.197V296.5H427.767V289.5ZM394.197 289.5C388.452 289.5 385.201 288.382 383.563 286.948L378.953 292.216C382.523 295.34 387.899 296.5 394.197 296.5V289.5ZM383.649 287.026C381.897 285.387 380.974 283.292 380.974 280.427H373.974C373.974 285.049 375.573 289.057 378.867 292.138L383.649 287.026ZM380.974 280.427C380.974 277.669 381.877 275.673 383.604 274.113L378.912 268.918C375.593 271.916 373.974 275.861 373.974 280.427H380.974ZM383.608 274.109C385.244 272.627 388.473 271.476 394.197 271.476V264.476C387.877 264.476 382.48 265.684 378.907 268.922L383.608 274.109ZM394.197 271.476H403.963V264.476H394.197V271.476ZM407.463 267.976V257.966H400.463V267.976H407.463ZM403.963 254.466H335.97V261.466H403.963V254.466ZM339.47 257.966V237.092H332.47V257.966H339.47ZM338.988 238.864L398.924 136.814L392.888 133.268L332.952 235.319L338.988 238.864ZM395.906 138.541H428.987V131.541H395.906V138.541ZM407.463 232.941V171.418H400.463V232.941H407.463ZM400.948 169.641L364.693 231.164L370.723 234.718L406.978 173.195L400.948 169.641ZM367.708 236.441H403.963V229.441H367.708V236.441Z" fill="#050206"/>
<line x1="190.95" y1="312" x2="190.95" y2="353" stroke="white" stroke-width="3"/>
<line x1="171" y1="333.05" x2="212" y2="333.05" stroke="white" stroke-width="3"/>
<line x1="255.65" y1="351" x2="255.65" y2="378" stroke="white" stroke-width="3"/>
<line x1="242" y1="364.35" x2="269" y2="364.35" stroke="white" stroke-width="3"/>
<line x1="96.65" y1="63" x2="96.65" y2="90" stroke="white" stroke-width="3"/>
<line x1="83" y1="76.3501" x2="110" y2="76.3501" stroke="white" stroke-width="3"/>
<path d="M332.05 303V362" stroke="white" stroke-width="3"/>
<line x1="303" y1="333.95" x2="362" y2="333.95" stroke="white" stroke-width="3"/>
<line x1="162.95" y1="77" x2="162.95" y2="118" stroke="white" stroke-width="3"/>
<line x1="143" y1="98.05" x2="184" y2="98.05" stroke="white" stroke-width="3"/>
</g>
<defs>
<linearGradient id="paint0_linear_344_273" x1="71.9735" y1="44.5761" x2="376.663" y2="363.964" gradientUnits="userSpaceOnUse">
<stop stop-color="#88BAFF"/>
<stop offset="1" stop-color="#CAAAFF"/>
</linearGradient>
<clipPath id="clip0_344_273">
<rect width="504" height="439" fill="white"/>
</clipPath>
</defs>
</svg>
