<svg width="455" height="455" viewBox="0 0 455 455" fill="none" xmlns="http://www.w3.org/2000/svg">
<path d="M193.065 305.907C196.467 309.552 180.363 340.708 147 350.62C102 350.62 74.8813 344.229 38.1856 325.408C59.322 299.006 78.6662 289.384 113.64 281.484" stroke="url(#paint0_linear_10_57)" stroke-width="8"/>
<path d="M194.282 308.252C154.64 306.287 138.114 300.271 114.682 285.394C127.518 263.067 141.007 254.043 175.053 243.494C196.3 253.14 210.018 255.7 237.953 254.791C232.328 282.222 222.717 293.899 194.282 308.252Z" stroke="url(#paint1_linear_10_57)" stroke-width="8"/>
<path d="M236.908 254.095C209.686 256.212 197.041 253.472 177.373 244.259C188.087 227.748 197.797 217.264 231.064 205.192C243.771 210.594 253.529 211.237 272.843 210.655C264.321 237.571 255.383 245.15 236.908 254.095Z" stroke="#8375FF" stroke-width="8"/>
<path d="M272.224 209.983C253.758 212.825 245.276 211.521 231.878 206.515C258.581 171.515 310.185 155.12 313.453 160.012C316.722 164.903 298.043 193.905 272.224 209.983Z" stroke="#946AFF" stroke-width="8"/>
<mask id="path-5-inside-1_10_57" fill="white">
<path fill-rule="evenodd" clip-rule="evenodd" d="M455 227.5C455 353.145 353.145 455 227.5 455C177.549 455 131.357 438.901 93.8314 411.609C94.5243 409.275 95.1222 406.75 95.6238 404.017C94.4514 403.953 93.2964 403.881 92.158 403.799C120.448 395.346 133.007 385.15 145.117 354.408C101.109 348.137 81.6703 344.052 47.4875 329.397C39.5218 332.021 33.1032 334.309 27.8381 336.637C10.0908 304.238 0 267.047 0 227.5C0 101.855 101.855 0 227.5 0C353.145 0 455 101.855 455 227.5ZM143.246 353.203C101.663 348.66 80.5392 343.261 47.6031 327.456C67.7797 302.833 85.7399 293.34 117.654 284.932C129.866 264.907 142.578 256.402 173.585 245.987C177.293 247.569 180.751 248.919 184.102 250.055C181.41 249.064 178.636 247.92 175.69 246.619C185.976 231.261 195.172 221.427 226.003 209.479C226.426 209.647 226.845 209.809 227.26 209.966C252.855 177.76 299.956 161.617 302.793 165.954C305.65 170.322 287.711 197.295 263.593 212.685C261.613 213.047 259.759 213.355 258.009 213.608C259.936 213.524 261.973 213.413 264.141 213.281C255.57 238.065 247.164 245.228 229.979 253.906C223.758 254.578 218.373 254.95 213.519 255.009C218.682 255.105 224.371 254.925 230.916 254.512C225.044 279.439 216.026 290.389 190.148 304.089C190.16 304.101 190.171 304.112 190.181 304.124C193.166 307.319 174.165 342.979 143.246 353.203Z"/>
</mask>
<path d="M93.8314 411.609L55.4843 400.23L47.4418 427.331L70.3044 443.959L93.8314 411.609ZM95.6238 404.017L134.967 411.236L143.17 366.533L97.7873 364.075L95.6238 404.017ZM92.158 403.799L80.7061 365.473L89.2992 443.697L92.158 403.799ZM145.117 354.408L182.334 369.069L200.894 321.952L150.76 314.808L145.117 354.408ZM47.4875 329.397L63.2491 292.634L49.3443 286.672L34.9747 291.405L47.4875 329.397ZM27.8381 336.637L-7.24356 355.853L10.408 388.078L44.0124 373.221L27.8381 336.637ZM47.6031 327.456L16.6636 302.103L-15.6098 341.489L30.2976 363.518L47.6031 327.456ZM143.246 353.203L138.902 392.966L147.548 393.911L155.804 391.181L143.246 353.203ZM117.654 284.932L127.844 323.612L143.418 319.509L151.804 305.759L117.654 284.932ZM173.585 245.987L189.289 209.198L175.284 203.22L160.849 208.069L173.585 245.987ZM184.102 250.055L171.259 287.937L197.922 212.518L184.102 250.055ZM175.69 246.619L142.455 224.36L115.934 263.958L159.532 283.21L175.69 246.619ZM226.003 209.479L240.772 172.305L226.185 166.511L211.55 172.182L226.003 209.479ZM227.26 209.966L213.18 247.405L240.449 257.661L258.576 234.852L227.26 209.966ZM302.793 165.954L336.267 144.056L336.266 144.056L302.793 165.954ZM263.593 212.685L270.797 252.031L278.504 250.62L285.109 246.405L263.593 212.685ZM258.009 213.608L252.272 174.022L259.77 253.57L258.009 213.608ZM264.141 213.281L301.945 226.354L321.529 169.723L261.717 173.354L264.141 213.281ZM229.979 253.906L234.271 293.675L241.51 292.894L248.009 289.612L229.979 253.906ZM213.519 255.009L213.031 215.012L212.771 295.002L213.519 255.009ZM230.916 254.512L269.851 263.683L282.216 211.194L228.396 214.591L230.916 254.512ZM190.148 304.089L171.432 268.738L123.134 294.309L162.109 332.617L190.148 304.089ZM190.181 304.124L219.41 276.816L219.399 276.804L219.387 276.792L190.181 304.124ZM227.5 495C375.236 495 495 375.236 495 227.5H415C415 331.053 331.053 415 227.5 415V495ZM70.3044 443.959C114.437 476.056 168.815 495 227.5 495V415C186.282 415 148.277 401.747 117.358 379.26L70.3044 443.959ZM56.2808 396.797C56.0072 398.288 55.7272 399.411 55.4843 400.23L132.179 422.989C133.321 419.138 134.237 415.212 134.967 411.236L56.2808 396.797ZM89.2992 443.697C90.6751 443.795 92.0619 443.882 93.4604 443.958L97.7873 364.075C96.8409 364.024 95.9178 363.966 95.0167 363.901L89.2992 443.697ZM107.901 339.748C102.898 352.447 99.5361 356.284 97.792 357.87C96.0737 359.433 92.5123 361.946 80.7061 365.473L103.61 442.125C120.093 437.199 136.956 430.388 151.618 417.054C166.253 403.744 175.226 387.112 182.334 369.069L107.901 339.748ZM31.7259 366.161C70.4454 382.761 93.7413 387.491 139.474 394.008L150.76 314.808C108.477 308.783 92.8952 305.344 63.2491 292.634L31.7259 366.161ZM44.0124 373.221C47.4001 371.723 52.2783 369.933 60.0002 367.39L34.9747 291.405C26.7653 294.109 18.8063 296.895 11.6637 300.053L44.0124 373.221ZM-40 227.5C-40 273.931 -28.1363 317.712 -7.24356 355.853L62.9197 317.42C48.3179 290.763 40 260.163 40 227.5H-40ZM227.5 -40C79.7638 -40 -40 79.7638 -40 227.5H40C40 123.947 123.947 40 227.5 40V-40ZM495 227.5C495 79.7638 375.236 -40 227.5 -40V40C331.053 40 415 123.947 415 227.5H495ZM30.2976 363.518C68.121 381.669 93.8062 388.04 138.902 392.966L147.59 313.44C109.52 309.281 92.9574 304.853 64.9086 291.393L30.2976 363.518ZM107.464 246.252C89.9023 250.878 73.4216 256.489 57.875 265.678C41.9591 275.084 28.9958 287.053 16.6636 302.103L78.5426 352.808C86.387 343.235 92.4921 338.146 98.5789 334.549C105.035 330.733 113.491 327.394 127.844 323.612L107.464 246.252ZM160.849 208.069C144.317 213.622 129.105 219.773 115.827 228.952C101.598 238.787 91.7824 250.53 83.5033 264.106L151.804 305.759C155.738 299.309 158.385 296.786 161.317 294.759C165.199 292.076 171.847 288.767 186.322 283.905L160.849 208.069ZM196.944 212.173C194.784 211.44 192.303 210.485 189.289 209.198L157.882 282.775C162.283 284.654 166.718 286.398 171.259 287.937L196.944 212.173ZM159.532 283.21C163.021 284.751 166.599 286.236 170.281 287.592L197.922 212.518C196.221 211.892 194.251 211.089 191.848 210.028L159.532 283.21ZM211.55 172.182C194.154 178.923 180.115 186.094 168.359 195.373C156.174 204.991 148.579 215.217 142.455 224.36L208.924 268.878C213.087 262.663 215.233 260.292 217.926 258.167C221.047 255.703 227.021 251.983 240.456 246.777L211.55 172.182ZM241.341 172.526C241.163 172.459 240.973 172.386 240.772 172.305L211.235 246.653C211.878 246.909 212.526 247.16 213.18 247.405L241.341 172.526ZM258.576 234.852C266.449 224.946 279.053 216.115 291.176 210.168C297.074 207.275 301.598 205.689 303.812 205.092C305.161 204.728 304.323 205.089 301.998 205.218C300.978 205.274 297.596 205.426 293.122 204.436C289.709 203.682 277.616 200.535 269.319 187.852L336.266 144.056C327.615 130.831 314.821 127.302 310.395 126.323C304.906 125.109 300.197 125.195 297.568 125.34C292.023 125.648 286.84 126.81 282.975 127.853C274.76 130.069 265.376 133.718 255.945 138.344C237.41 147.436 213.667 162.78 195.945 185.079L258.576 234.852ZM269.319 187.852C264.322 180.213 263.308 172.849 263.128 168.812C262.942 164.641 263.523 161.467 263.875 159.886C264.262 158.15 264.696 156.93 264.915 156.352C265.153 155.727 265.322 155.38 265.341 155.343C265.363 155.299 265.107 155.813 264.421 156.873C263.764 157.888 262.858 159.179 261.696 160.678C256.722 167.094 249.471 174.247 242.076 178.965L285.109 246.405C301.834 235.733 315.611 221.704 324.922 209.694C329.563 203.707 333.97 197.099 337.189 190.525C338.72 187.399 340.74 182.763 341.961 177.284C342.598 174.422 346.123 159.122 336.267 144.056L269.319 187.852ZM256.388 173.339C254.815 173.627 253.455 173.85 252.272 174.022L263.747 253.195C266.063 252.859 268.412 252.468 270.797 252.031L256.388 173.339ZM261.717 173.354C259.697 173.477 257.891 173.575 256.249 173.647L259.77 253.57C261.98 253.472 264.248 253.348 266.565 253.207L261.717 173.354ZM248.009 289.612C257.949 284.593 269.765 277.907 280.159 266.239C290.446 254.691 296.831 241.142 301.945 226.354L226.338 200.208C222.881 210.203 220.777 212.629 220.422 213.027C220.173 213.306 219.194 214.541 211.948 218.201L248.009 289.612ZM214.007 295.006C220.503 294.927 227.219 294.437 234.271 293.675L225.686 214.137C220.298 214.719 216.243 214.973 213.031 215.012L214.007 295.006ZM228.396 214.591C222.522 214.962 217.99 215.086 214.266 215.016L212.771 295.002C219.374 295.125 226.22 294.888 233.436 294.432L228.396 214.591ZM208.864 339.44C223.545 331.668 237.732 322.53 248.926 308.921C260.522 294.823 266.17 279.31 269.851 263.683L191.982 245.34C189.791 254.641 187.993 257.066 187.142 258.1C185.889 259.623 182.628 262.81 171.432 268.738L208.864 339.44ZM219.387 276.792C219.025 276.405 218.625 275.992 218.187 275.562L162.109 332.617C161.694 332.209 161.317 331.82 160.976 331.455L219.387 276.792ZM155.804 391.181C181.511 382.68 200.009 364.712 210.997 350.592C216.677 343.292 221.409 335.675 224.701 328.62C226.256 325.289 228.136 320.719 229.304 315.556C229.863 313.083 230.661 308.769 230.455 303.519C230.29 299.32 229.259 287.358 219.41 276.816L160.953 331.431C151.477 321.288 150.647 309.98 150.517 306.659C150.345 302.288 151.01 299.077 151.276 297.905C151.855 295.344 152.499 294.164 152.209 294.785C151.812 295.634 150.421 298.171 147.859 301.463C142.362 308.527 135.9 313.502 130.688 315.225L155.804 391.181Z" fill="url(#paint2_linear_10_57)" mask="url(#path-5-inside-1_10_57)"/>
<path d="M435 227.5C435 342.099 342.099 435 227.5 435C112.901 435 20 342.099 20 227.5C20 112.901 112.901 20 227.5 20C342.099 20 435 112.901 435 227.5Z" stroke="url(#paint3_linear_10_57)" stroke-width="40"/>
<mask id="path-8-inside-2_10_57" fill="white">
<path fill-rule="evenodd" clip-rule="evenodd" d="M151 101C151 95.4772 146.522 91 141 91C135.477 91 131 95.4772 131 101V131H101V131.049C100.671 131.017 100.337 131 99.9995 131C94.4767 131 89.9995 135.477 89.9995 141C89.9995 146.523 94.4767 151 99.9995 151C100.337 151 100.671 150.983 101 150.951V151H131V180V181H131.049C131.551 186.053 135.814 190 141 190C146.185 190 150.448 186.053 150.95 181H151V180V151H180H181V150.951C186.053 150.449 190 146.185 190 141C190 135.815 186.053 131.551 181 131.049V131H180H151V101Z"/>
</mask>
<path fill-rule="evenodd" clip-rule="evenodd" d="M151 101C151 95.4772 146.522 91 141 91C135.477 91 131 95.4772 131 101V131H101V131.049C100.671 131.017 100.337 131 99.9995 131C94.4767 131 89.9995 135.477 89.9995 141C89.9995 146.523 94.4767 151 99.9995 151C100.337 151 100.671 150.983 101 150.951V151H131V180V181H131.049C131.551 186.053 135.814 190 141 190C146.185 190 150.448 186.053 150.95 181H151V180V151H180H181V150.951C186.053 150.449 190 146.185 190 141C190 135.815 186.053 131.551 181 131.049V131H180H151V101Z" fill="black"/>
<path d="M131 131V151H151V131H131ZM101 131V111H80.9995V131H101ZM101 131.049L99.0234 150.952L121 153.134V131.049H101ZM101 150.951H121V128.866L99.0234 131.048L101 150.951ZM101 151H80.9995V171H101V151ZM131 151H151V131H131V151ZM131 181H111V201H131V181ZM131.049 181L150.951 179.024L149.162 161H131.049V181ZM150.95 181V161H132.838L131.048 179.024L150.95 181ZM151 181V201H171V181H151ZM151 151V131H131V151H151ZM181 151V171H201V151H181ZM181 150.951L179.024 131.048L161 132.838V150.951H181ZM181 131.049H161V149.162L179.024 150.952L181 131.049ZM181 131H201V111H181V131ZM151 131H131V151H151V131ZM141 111C135.477 111 131 106.523 131 101H171C171 84.4315 157.568 71 141 71V111ZM151 101C151 106.523 146.522 111 141 111V71C124.431 71 111 84.4315 111 101H151ZM111 101V131H151V101H111ZM131 111H101V151H131V111ZM80.9995 131V131.049H121V131H80.9995ZM102.976 111.147C101.991 111.049 100.998 111 99.9995 111V151C99.6762 151 99.3503 150.984 99.0234 150.952L102.976 111.147ZM99.9995 111C83.431 111 69.9995 124.431 69.9995 141H110C110 146.523 105.522 151 99.9995 151V111ZM69.9995 141C69.9995 157.569 83.431 171 99.9995 171V131C105.522 131 110 135.477 110 141H69.9995ZM99.9995 171C100.998 171 101.991 170.951 102.976 170.853L99.0234 131.048C99.3503 131.016 99.6762 131 99.9995 131V171ZM80.9995 150.951V151H121V150.951H80.9995ZM101 171H131V131H101V171ZM111 151V180H151V151H111ZM111 180V181H151V180H111ZM131 201H131.049V161H131V201ZM111.147 182.976C112.654 198.157 125.431 210 141 210V170C146.197 170 150.447 173.949 150.951 179.024L111.147 182.976ZM141 210C156.568 210 169.345 198.157 170.852 182.976L131.048 179.024C131.552 173.949 135.802 170 141 170V210ZM150.95 201H151V161H150.95V201ZM171 181V180H131V181H171ZM171 180V151H131V180H171ZM151 171H180V131H151V171ZM180 171H181V131H180V171ZM201 151V150.951H161V151H201ZM182.976 170.853C198.157 169.345 210 156.568 210 141H170C170 135.803 173.949 131.552 179.024 131.048L182.976 170.853ZM210 141C210 125.432 198.157 112.655 182.976 111.147L179.024 150.952C173.949 150.448 170 146.197 170 141H210ZM201 131.049V131H161V131.049H201ZM181 111H180V151H181V111ZM180 111H151V151H180V111ZM171 131V101H131V131H171Z" fill="url(#paint4_linear_10_57)" mask="url(#path-8-inside-2_10_57)"/>
<mask id="path-10-inside-3_10_57" fill="white">
<path fill-rule="evenodd" clip-rule="evenodd" d="M348 244C348 238.477 343.523 234 338 234C332.477 234 328 238.477 328 244V274H298V274.049C297.671 274.017 297.337 274 297 274C291.477 274 287 278.477 287 284C287 289.523 291.477 294 297 294C297.337 294 297.671 293.983 298 293.951V294H328V323V324H328.049C328.551 329.053 332.815 333 338 333C343.185 333 347.449 329.053 347.951 324H348V323V294H377H378V293.951C383.053 293.449 387 289.185 387 284C387 278.815 383.053 274.551 378 274.049V274H377H348V244Z"/>
</mask>
<path fill-rule="evenodd" clip-rule="evenodd" d="M348 244C348 238.477 343.523 234 338 234C332.477 234 328 238.477 328 244V274H298V274.049C297.671 274.017 297.337 274 297 274C291.477 274 287 278.477 287 284C287 289.523 291.477 294 297 294C297.337 294 297.671 293.983 298 293.951V294H328V323V324H328.049C328.551 329.053 332.815 333 338 333C343.185 333 347.449 329.053 347.951 324H348V323V294H377H378V293.951C383.053 293.449 387 289.185 387 284C387 278.815 383.053 274.551 378 274.049V274H377H348V244Z" fill="black"/>
<path d="M328 274V294H348V274H328ZM298 274V254H278V274H298ZM298 274.049L296.024 293.952L318 296.134V274.049H298ZM298 293.951H318V271.866L296.024 274.048L298 293.951ZM298 294H278V314H298V294ZM328 294H348V274H328V294ZM328 324H308V344H328V324ZM328.049 324L347.951 322.024L346.162 304H328.049V324ZM347.951 324V304H329.838L328.048 322.024L347.951 324ZM348 324V344H368V324H348ZM348 294V274H328V294H348ZM378 294V314H398V294H378ZM378 293.951L376.024 274.048L358 275.838V293.951H378ZM378 274.049H358V292.162L376.024 293.952L378 274.049ZM378 274H398V254H378V274ZM348 274H328V294H348V274ZM338 254C332.477 254 328 249.523 328 244H368C368 227.431 354.569 214 338 214V254ZM348 244C348 249.523 343.523 254 338 254V214C321.431 214 308 227.431 308 244H348ZM308 244V274H348V244H308ZM328 254H298V294H328V254ZM278 274V274.049H318V274H278ZM299.976 254.147C298.991 254.049 297.998 254 297 254V294C296.677 294 296.351 293.984 296.024 293.952L299.976 254.147ZM297 254C280.431 254 267 267.431 267 284H307C307 289.523 302.523 294 297 294V254ZM267 284C267 300.569 280.431 314 297 314V274C302.523 274 307 278.477 307 284H267ZM297 314C297.998 314 298.991 313.951 299.976 313.853L296.024 274.048C296.351 274.016 296.677 274 297 274V314ZM278 293.951V294H318V293.951H278ZM298 314H328V274H298V314ZM308 294V323H348V294H308ZM308 323V324H348V323H308ZM328 344H328.049V304H328V344ZM308.147 325.976C309.654 341.157 322.432 353 338 353V313C343.197 313 347.448 316.949 347.951 322.024L308.147 325.976ZM338 353C353.568 353 366.345 341.157 367.853 325.976L328.048 322.024C328.552 316.949 332.803 313 338 313V353ZM347.951 344H348V304H347.951V344ZM368 324V323H328V324H368ZM368 323V294H328V323H368ZM348 314H377V274H348V314ZM377 314H378V274H377V314ZM398 294V293.951H358V294H398ZM379.976 313.853C395.157 312.345 407 299.568 407 284H367C367 278.803 370.949 274.552 376.024 274.048L379.976 313.853ZM407 284C407 268.432 395.157 255.655 379.976 254.147L376.024 293.952C370.949 293.448 367 289.197 367 284H407ZM398 274.049V274H358V274.049H398ZM378 254H377V294H378V254ZM377 254H348V294H377V254ZM368 274V244H328V274H368Z" fill="url(#paint5_linear_10_57)" mask="url(#path-10-inside-3_10_57)"/>
<mask id="path-12-inside-4_10_57" fill="white">
<path fill-rule="evenodd" clip-rule="evenodd" d="M218.938 75C218.978 74.6724 219 74.3387 219 74C219 69.5817 215.418 66 211 66C206.581 66 203 69.5817 203 74C203 74.3387 203.021 74.6724 203.061 75H203V87H191H191C186.581 87.0002 183 90.5819 183 95C183 99.4181 186.581 103 191 103H191H203V114V115H203.061C203.554 118.946 206.92 122 211 122C215.079 122 218.446 118.946 218.938 115H219V114V103H230H231V102.938C234.946 102.446 238 99.0796 238 95C238 90.9204 234.946 87.554 231 87.0619V87H230H219V75H218.938Z"/>
</mask>
<path fill-rule="evenodd" clip-rule="evenodd" d="M218.938 75C218.978 74.6724 219 74.3387 219 74C219 69.5817 215.418 66 211 66C206.581 66 203 69.5817 203 74C203 74.3387 203.021 74.6724 203.061 75H203V87H191H191C186.581 87.0002 183 90.5819 183 95C183 99.4181 186.581 103 191 103H191H203V114V115H203.061C203.554 118.946 206.92 122 211 122C215.079 122 218.446 118.946 218.938 115H219V114V103H230H231V102.938C234.946 102.446 238 99.0796 238 95C238 90.9204 234.946 87.554 231 87.0619V87H230H219V75H218.938Z" fill="black"/>
<path d="M218.938 75L119.706 62.6256L105.693 175H218.938V75ZM203.061 75V175H316.305L302.293 62.6262L203.061 75ZM203 75V-25H103V75H203ZM203 87V187H303V87H203ZM191 87L191 -13L190.994 -13L191 87ZM191 103L190.994 203H191V103ZM203 103H303V3H203V103ZM203 115H103V215H203V115ZM203.061 115L302.293 102.626L291.366 15H203.061V115ZM218.938 115V15H130.633L119.706 102.626L218.938 115ZM219 115V215H319V115H219ZM219 103V3H119V103H219ZM231 103V203H331V103H231ZM231 102.938L218.625 3.70664L131 14.6335V102.938H231ZM231 87.0619H131V175.367L218.626 186.293L231 87.0619ZM231 87H331V-13H231V87ZM219 87H119V187H219V87ZM219 75H319V-25H219V75ZM119 74C119 70.1924 119.236 66.3935 119.706 62.6256L318.169 87.3744C318.721 82.9513 319 78.4849 319 74H119ZM211 166C160.189 166 119 124.81 119 74H319C319 14.3532 270.646 -34 211 -34V166ZM303 74C303 124.81 261.81 166 211 166V-34C151.353 -34 103 14.3532 103 74H303ZM302.293 62.6262C302.763 66.3933 303 70.192 303 74H103C103 78.4853 103.278 82.9515 103.83 87.3738L302.293 62.6262ZM203.061 -25H203V175H203.061V-25ZM103 75V87H303V75H103ZM203 -13H191V187H203V-13ZM191 -13H191V187H191V-13ZM190.994 -13C131.35 -12.9967 83 35.3553 83 95H283C283 145.808 241.813 186.997 191.005 187L190.994 -13ZM83 95C83 154.645 131.35 202.997 190.994 203L191.005 3C241.813 3.00285 283 44.1915 283 95H83ZM191 203H191V3H191V203ZM191 203H203V3H191V203ZM103 103V114H303V103H103ZM103 114V115H303V114H103ZM203 215H203.061V15H203V215ZM103.83 127.374C110.486 180.752 155.849 222 211 222V22C257.991 22 296.621 57.1411 302.293 102.626L103.83 127.374ZM211 222C266.15 222 311.513 180.752 318.169 127.374L119.706 102.626C125.378 57.1411 164.008 22 211 22V222ZM218.938 215H219V15H218.938V215ZM319 115V114H119V115H319ZM319 114V103H119V114H319ZM219 203H230V3H219V203ZM230 203H231V3H230V203ZM331 103V102.938H131V103H331ZM243.374 202.17C296.751 195.513 338 150.15 338 95H138C138 48.0089 173.141 9.37854 218.625 3.70664L243.374 202.17ZM338 95C338 39.8497 296.751 -5.51349 243.373 -12.1696L218.626 186.293C173.141 180.621 138 141.991 138 95H338ZM331 87.0619V87H131V87.0619H331ZM231 -13H230V187H231V-13ZM230 -13H219V187H230V-13ZM319 87V75H119V87H319ZM219 -25H218.938V175H219V-25Z" fill="url(#paint6_linear_10_57)" mask="url(#path-12-inside-4_10_57)"/>
<mask id="path-14-inside-5_10_57" fill="white">
<path fill-rule="evenodd" clip-rule="evenodd" d="M280.938 323C280.979 322.672 281 322.339 281 322C281 317.582 277.418 314 273 314C268.581 314 265 317.582 265 322C265 322.339 265.021 322.672 265.061 323H265V335H253H253C248.581 335 245 338.582 245 343C245 347.418 248.581 351 253 351H253H265V362V363H265.061C265.554 366.946 268.92 370 273 370C277.079 370 280.446 366.946 280.938 363H281V362V351H292H293V350.938C296.946 350.446 300 347.08 300 343C300 338.92 296.946 335.554 293 335.062V335H292H281V323H280.938Z"/>
</mask>
<path fill-rule="evenodd" clip-rule="evenodd" d="M280.938 323C280.979 322.672 281 322.339 281 322C281 317.582 277.418 314 273 314C268.581 314 265 317.582 265 322C265 322.339 265.021 322.672 265.061 323H265V335H253H253C248.581 335 245 338.582 245 343C245 347.418 248.581 351 253 351H253H265V362V363H265.061C265.554 366.946 268.92 370 273 370C277.079 370 280.446 366.946 280.938 363H281V362V351H292H293V350.938C296.946 350.446 300 347.08 300 343C300 338.92 296.946 335.554 293 335.062V335H292H281V323H280.938Z" fill="black"/>
<path d="M280.938 323L181.706 310.626L167.693 423H280.938V323ZM265.061 323V423H378.306L364.293 310.626L265.061 323ZM265 323V223H165V323H265ZM265 335V435H365V335H265ZM253 335L253 235L252.994 235L253 335ZM253 351L252.994 451H253V351ZM265 351H365V251H265V351ZM265 363H165V463H265V363ZM265.061 363L364.293 350.626L353.366 263H265.061V363ZM280.938 363V263H192.633L181.706 350.626L280.938 363ZM281 363V463H381V363H281ZM281 351V251H181V351H281ZM293 351V451H393V351H293ZM293 350.938L280.626 251.707L193 262.633V350.938H293ZM293 335.062H193V423.367L280.626 434.293L293 335.062ZM293 335H393V235H293V335ZM281 335H181V435H281V335ZM281 323H381V223H281V323ZM181 322C181 318.192 181.236 314.393 181.706 310.626L380.169 335.374C380.721 330.951 381 326.485 381 322H181ZM273 414C222.189 414 181 372.81 181 322H381C381 262.353 332.646 214 273 214V414ZM365 322C365 372.81 323.81 414 273 414V214C213.353 214 165 262.353 165 322H365ZM364.293 310.626C364.763 314.393 365 318.192 365 322H165C165 326.485 165.279 330.951 165.83 335.374L364.293 310.626ZM265.061 223H265V423H265.061V223ZM165 323V335H365V323H165ZM265 235H253V435H265V235ZM253 235H253V435H253V235ZM252.994 235C193.35 235.003 145 283.355 145 343H345C345 393.808 303.813 434.997 253.005 435L252.994 235ZM145 343C145 402.645 193.35 450.997 252.994 451L253.005 251C303.813 251.003 345 292.191 345 343H145ZM253 451H253V251H253V451ZM253 451H265V251H253V451ZM165 351V362H365V351H165ZM165 362V363H365V362H165ZM265 463H265.061V263H265V463ZM165.83 375.374C172.486 428.752 217.849 470 273 470V270C319.991 270 358.621 305.141 364.293 350.626L165.83 375.374ZM273 470C328.15 470 373.513 428.751 380.169 375.374L181.706 350.626C187.378 305.141 226.008 270 273 270V470ZM280.938 463H281V263H280.938V463ZM381 363V362H181V363H381ZM381 362V351H181V362H381ZM281 451H292V251H281V451ZM292 451H293V251H292V451ZM393 351V350.938H193V351H393ZM305.374 450.17C358.751 443.513 400 398.15 400 343H200C200 296.009 235.141 257.379 280.626 251.707L305.374 450.17ZM400 343C400 287.85 358.751 242.486 305.374 235.83L280.626 434.293C235.141 428.621 200 389.991 200 343H400ZM393 335.062V335H193V335.062H393ZM293 235H292V435H293V235ZM292 235H281V435H292V235ZM381 335V323H181V335H381ZM281 223H280.938V423H281V223Z" fill="url(#paint7_linear_10_57)" mask="url(#path-14-inside-5_10_57)"/>
<defs>
<linearGradient id="paint0_linear_10_57" x1="165.727" y1="276.21" x2="72.1745" y2="362.331" gradientUnits="userSpaceOnUse">
<stop stop-color="#628CFF"/>
<stop offset="1" stop-color="#6C85FF"/>
</linearGradient>
<linearGradient id="paint1_linear_10_57" x1="220.879" y1="236.244" x2="138.904" y2="311.707" gradientUnits="userSpaceOnUse">
<stop stop-color="#7083FF"/>
<stop offset="1" stop-color="#7A7CFF"/>
</linearGradient>
<linearGradient id="paint2_linear_10_57" x1="227.5" y1="0" x2="227.5" y2="455" gradientUnits="userSpaceOnUse">
<stop stop-color="#C548FF"/>
<stop offset="1" stop-color="#489EFF"/>
</linearGradient>
<linearGradient id="paint3_linear_10_57" x1="227.5" y1="0" x2="227.5" y2="455" gradientUnits="userSpaceOnUse">
<stop stop-color="#C548FF"/>
<stop offset="1" stop-color="#489EFF"/>
</linearGradient>
<linearGradient id="paint4_linear_10_57" x1="140" y1="91" x2="140" y2="190" gradientUnits="userSpaceOnUse">
<stop stop-color="#C548FF"/>
<stop offset="1" stop-color="#489EFF"/>
</linearGradient>
<linearGradient id="paint5_linear_10_57" x1="337" y1="234" x2="337" y2="333" gradientUnits="userSpaceOnUse">
<stop stop-color="#C548FF"/>
<stop offset="1" stop-color="#489EFF"/>
</linearGradient>
<linearGradient id="paint6_linear_10_57" x1="210.5" y1="66" x2="210.5" y2="122" gradientUnits="userSpaceOnUse">
<stop stop-color="#C548FF"/>
<stop offset="1" stop-color="#489EFF"/>
</linearGradient>
<linearGradient id="paint7_linear_10_57" x1="272.5" y1="314" x2="272.5" y2="370" gradientUnits="userSpaceOnUse">
<stop stop-color="#C548FF"/>
<stop offset="1" stop-color="#489EFF"/>
</linearGradient>
</defs>
</svg>
