<svg width="504" height="439" viewBox="0 0 504 439" fill="none" xmlns="http://www.w3.org/2000/svg">
<path fill-rule="evenodd" clip-rule="evenodd" d="M68.0393 290.056C51.4869 243.887 63.6113 190.524 93.0892 149.795C121.092 111.105 168.393 84.1458 216.925 84.3446C258.869 84.5164 278.097 132.216 314.989 150.704C356.751 171.632 422.997 155.847 442.206 197.239C461.524 238.866 428.882 289.803 394.78 322.639C366.336 350.026 321.859 341.501 282.965 350.567C245.185 359.374 210.473 384.607 173.545 374.21C127.758 361.319 83.5803 333.405 68.0393 290.056Z" fill="url(#paint0_linear_281_523)"/>
<mask id="path-2-inside-1_281_523" fill="white">
<path fill-rule="evenodd" clip-rule="evenodd" d="M142 193C138.686 193 136 195.686 136 199V246V270V317C136 320.314 138.686 323 142 323H350C353.314 323 356 320.314 356 317V270V246V199C356 195.686 353.314 193 350 193H142Z"/>
</mask>
<path fill-rule="evenodd" clip-rule="evenodd" d="M142 193C138.686 193 136 195.686 136 199V246V270V317C136 320.314 138.686 323 142 323H350C353.314 323 356 320.314 356 317V270V246V199C356 195.686 353.314 193 350 193H142Z" fill="black"/>
<path d="M139.5 199C139.5 197.619 140.619 196.5 142 196.5V189.5C136.753 189.5 132.5 193.753 132.5 199H139.5ZM139.5 246V199H132.5V246H139.5ZM139.5 270V246H132.5V270H139.5ZM139.5 317V270H132.5V317H139.5ZM142 319.5C140.619 319.5 139.5 318.381 139.5 317H132.5C132.5 322.247 136.753 326.5 142 326.5V319.5ZM350 319.5H142V326.5H350V319.5ZM352.5 317C352.5 318.381 351.381 319.5 350 319.5V326.5C355.247 326.5 359.5 322.247 359.5 317H352.5ZM352.5 270V317H359.5V270H352.5ZM352.5 246V270H359.5V246H352.5ZM352.5 199V246H359.5V199H352.5ZM350 196.5C351.381 196.5 352.5 197.619 352.5 199H359.5C359.5 193.753 355.247 189.5 350 189.5V196.5ZM142 196.5H350V189.5H142V196.5Z" fill="black" mask="url(#path-2-inside-1_281_523)"/>
<mask id="path-4-inside-2_281_523" fill="white">
<path fill-rule="evenodd" clip-rule="evenodd" d="M349 193H129V239V276V310C129 313.314 131.686 316 135 316H343C346.314 316 349 313.314 349 310V276V239V193Z"/>
</mask>
<path fill-rule="evenodd" clip-rule="evenodd" d="M349 193H129V239V276V310C129 313.314 131.686 316 135 316H343C346.314 316 349 313.314 349 310V276V239V193Z" fill="white"/>
<path d="M129 193V189.5H125.5V193H129ZM349 193H352.5V189.5H349V193ZM129 196.5H349V189.5H129V196.5ZM132.5 239V193H125.5V239H132.5ZM132.5 276V239H125.5V276H132.5ZM132.5 310V276H125.5V310H132.5ZM135 312.5C133.619 312.5 132.5 311.381 132.5 310H125.5C125.5 315.247 129.753 319.5 135 319.5V312.5ZM343 312.5H135V319.5H343V312.5ZM345.5 310C345.5 311.381 344.381 312.5 343 312.5V319.5C348.247 319.5 352.5 315.247 352.5 310H345.5ZM345.5 276V310H352.5V276H345.5ZM345.5 239V276H352.5V239H345.5ZM345.5 193V239H352.5V193H345.5Z" fill="black" mask="url(#path-4-inside-2_281_523)"/>
<g clip-path="url(#clip0_281_523)">
<path d="M248.281 122.475L346.575 193.25H131.425L229.719 122.474L229.769 122.442C229.823 122.407 229.903 122.354 230.007 122.288C230.215 122.154 230.517 121.962 230.887 121.731C231.63 121.268 232.644 120.654 233.733 120.042C234.828 119.426 235.972 118.829 236.981 118.391C238.072 117.918 238.743 117.75 239 117.75C239.257 117.75 239.928 117.918 241.019 118.391C242.028 118.829 243.172 119.426 244.267 120.042C245.356 120.654 246.37 121.268 247.113 121.731C247.483 121.962 247.785 122.154 247.993 122.288C248.097 122.354 248.177 122.407 248.231 122.442L248.281 122.475Z" fill="white" stroke="black" stroke-width="3.5"/>
</g>
<path d="M346.099 193.046L247.693 269.91C247.504 269.963 247.239 270.036 246.917 270.124C246.237 270.308 245.306 270.554 244.298 270.8C242.194 271.312 240.032 271.75 239 271.75C237.975 271.75 235.89 271.315 233.862 270.803C232.892 270.558 231.997 270.313 231.345 270.129C231.038 270.042 230.785 269.968 230.604 269.916L131.904 193.044L170.572 164.75L307.428 164.75L346.099 193.046Z" fill="white" stroke="black" stroke-width="3.5"/>
<mask id="path-8-inside-3_281_523" fill="white">
<path fill-rule="evenodd" clip-rule="evenodd" d="M167 132C162.582 132 159 135.582 159 140V176V209V216.5L210.5 258H265.5L319 216.5V209V176V140C319 135.582 315.418 132 311 132H167Z"/>
</mask>
<path fill-rule="evenodd" clip-rule="evenodd" d="M167 132C162.582 132 159 135.582 159 140V176V209V216.5L210.5 258H265.5L319 216.5V209V176V140C319 135.582 315.418 132 311 132H167Z" fill="white"/>
<path d="M159 216.5H155.5V218.175L156.804 219.225L159 216.5ZM210.5 258L208.304 260.725L209.265 261.5H210.5V258ZM265.5 258V261.5H266.698L267.645 260.766L265.5 258ZM319 216.5L321.145 219.266L322.5 218.215V216.5H319ZM162.5 140C162.5 137.515 164.515 135.5 167 135.5V128.5C160.649 128.5 155.5 133.649 155.5 140H162.5ZM162.5 176V140H155.5V176H162.5ZM162.5 209V176H155.5V209H162.5ZM162.5 216.5V209H155.5V216.5H162.5ZM212.696 255.275L161.196 213.775L156.804 219.225L208.304 260.725L212.696 255.275ZM265.5 254.5H210.5V261.5H265.5V254.5ZM316.855 213.734L263.355 255.234L267.645 260.766L321.145 219.266L316.855 213.734ZM315.5 209V216.5H322.5V209H315.5ZM315.5 176V209H322.5V176H315.5ZM315.5 140V176H322.5V140H315.5ZM311 135.5C313.485 135.5 315.5 137.515 315.5 140H322.5C322.5 133.649 317.351 128.5 311 128.5V135.5ZM167 135.5H311V128.5H167V135.5Z" fill="black" mask="url(#path-8-inside-3_281_523)"/>
<mask id="path-10-inside-4_281_523" fill="white">
<path d="M239 237C243.674 237 250.97 242.681 251.901 243.421C251.968 243.474 252.035 243.525 252.106 243.574L346.861 309.629C349.671 311.588 348.285 316 344.859 316H133.141C129.716 316 128.329 311.588 131.139 309.629L225.894 243.574C225.965 243.525 226.032 243.474 226.099 243.421C227.03 242.681 234.326 237 239 237Z"/>
</mask>
<path d="M239 237C243.674 237 250.97 242.681 251.901 243.421C251.968 243.474 252.035 243.525 252.106 243.574L346.861 309.629C349.671 311.588 348.285 316 344.859 316H133.141C129.716 316 128.329 311.588 131.139 309.629L225.894 243.574C225.965 243.525 226.032 243.474 226.099 243.421C227.03 242.681 234.326 237 239 237Z" fill="white"/>
<path d="M251.901 243.421L249.723 246.16L249.723 246.16L251.901 243.421ZM252.106 243.574L250.104 246.445L250.104 246.445L252.106 243.574ZM346.861 309.629L348.862 306.758V306.758L346.861 309.629ZM131.139 309.629L129.138 306.758L129.138 306.758L131.139 309.629ZM225.894 243.574L223.893 240.702L223.893 240.702L225.894 243.574ZM226.099 243.421L228.277 246.16L228.277 246.16L226.099 243.421ZM239 240.5C239.528 240.5 240.383 240.678 241.553 241.147C242.681 241.6 243.888 242.236 245.055 242.935C247.391 244.334 249.311 245.833 249.723 246.16L254.08 240.681C253.56 240.268 251.367 238.557 248.653 236.93C247.296 236.117 245.745 235.287 244.16 234.651C242.619 234.032 240.809 233.5 239 233.5V240.5ZM249.723 246.16C249.839 246.253 249.965 246.348 250.104 246.445L254.107 240.703C254.106 240.702 254.104 240.7 254.1 240.697C254.096 240.694 254.089 240.689 254.08 240.681L249.723 246.16ZM250.104 246.445L344.859 312.5L348.862 306.758L254.107 240.702L250.104 246.445ZM344.859 312.5C344.88 312.515 344.891 312.525 344.894 312.528C344.898 312.531 344.896 312.531 344.892 312.525C344.889 312.52 344.884 312.512 344.879 312.503C344.875 312.494 344.872 312.486 344.869 312.478C344.865 312.464 344.866 312.458 344.866 312.464C344.866 312.467 344.865 312.472 344.864 312.478C344.863 312.485 344.862 312.492 344.859 312.5C344.857 312.508 344.854 312.515 344.851 312.521C344.848 312.527 344.845 312.531 344.844 312.533C344.841 312.538 344.843 312.533 344.855 312.524C344.861 312.519 344.869 312.514 344.878 312.509C344.886 312.504 344.895 312.501 344.901 312.498C344.907 312.496 344.909 312.496 344.904 312.497C344.899 312.498 344.885 312.5 344.859 312.5V319.5C351.71 319.5 354.482 310.675 348.862 306.758L344.859 312.5ZM344.859 312.5H133.141V319.5H344.859V312.5ZM133.141 312.5C133.115 312.5 133.101 312.498 133.096 312.497C133.091 312.496 133.093 312.496 133.099 312.498C133.106 312.501 133.114 312.504 133.122 312.509C133.131 312.514 133.139 312.519 133.145 312.524C133.157 312.533 133.16 312.538 133.156 312.533C133.155 312.531 133.152 312.527 133.149 312.521C133.146 312.515 133.143 312.508 133.141 312.5C133.139 312.492 133.137 312.485 133.136 312.478C133.135 312.472 133.134 312.467 133.134 312.464C133.134 312.458 133.135 312.464 133.131 312.478C133.128 312.486 133.125 312.494 133.121 312.503C133.116 312.512 133.112 312.52 133.108 312.525C133.104 312.531 133.102 312.531 133.106 312.528C133.109 312.525 133.12 312.515 133.141 312.5L129.138 306.758C123.518 310.675 126.29 319.5 133.141 319.5V312.5ZM133.141 312.5L227.896 246.445L223.893 240.702L129.138 306.758L133.141 312.5ZM227.896 246.445C228.035 246.348 228.161 246.252 228.277 246.16L223.921 240.681C223.911 240.689 223.904 240.694 223.9 240.697C223.896 240.7 223.894 240.702 223.893 240.702L227.896 246.445ZM228.277 246.16C228.689 245.833 230.609 244.334 232.945 242.935C234.112 242.236 235.32 241.6 236.447 241.147C237.617 240.678 238.472 240.5 239 240.5V233.5C237.191 233.5 235.381 234.032 233.84 234.651C232.255 235.287 230.704 236.117 229.347 236.93C226.633 238.557 224.44 240.268 223.921 240.681L228.277 246.16Z" fill="black" mask="url(#path-10-inside-4_281_523)"/>
<g opacity="0.5">
<path d="M169 191C169 189.343 170.343 188 172 188H306C307.657 188 309 189.343 309 191V195C309 196.657 307.657 198 306 198H172C170.343 198 169 196.657 169 195V191Z" fill="url(#paint1_linear_281_523)"/>
<path d="M169 191C169 189.343 170.343 188 172 188H306C307.657 188 309 189.343 309 191V195C309 196.657 307.657 198 306 198H172C170.343 198 169 196.657 169 195V191Z" fill="url(#paint2_linear_281_523)"/>
<path d="M169 191C169 189.343 170.343 188 172 188H306C307.657 188 309 189.343 309 191V195C309 196.657 307.657 198 306 198H172C170.343 198 169 196.657 169 195V191Z" fill="url(#paint3_linear_281_523)"/>
<path d="M169 191C169 189.343 170.343 188 172 188H306C307.657 188 309 189.343 309 191V195C309 196.657 307.657 198 306 198H172C170.343 198 169 196.657 169 195V191Z" fill="url(#paint4_linear_281_523)"/>
<path d="M169 211C169 209.343 170.343 208 172 208H306C307.657 208 309 209.343 309 211V215C309 216.657 307.657 218 306 218H172C170.343 218 169 216.657 169 215V211Z" fill="url(#paint5_linear_281_523)"/>
<path d="M169 211C169 209.343 170.343 208 172 208H306C307.657 208 309 209.343 309 211V215C309 216.657 307.657 218 306 218H172C170.343 218 169 216.657 169 215V211Z" fill="url(#paint6_linear_281_523)"/>
<path d="M169 211C169 209.343 170.343 208 172 208H306C307.657 208 309 209.343 309 211V215C309 216.657 307.657 218 306 218H172C170.343 218 169 216.657 169 215V211Z" fill="url(#paint7_linear_281_523)"/>
<path d="M169 211C169 209.343 170.343 208 172 208H306C307.657 208 309 209.343 309 211V215C309 216.657 307.657 218 306 218H172C170.343 218 169 216.657 169 215V211Z" fill="url(#paint8_linear_281_523)"/>
<rect x="169" y="168" width="140" height="10" rx="3" fill="url(#paint9_linear_281_523)"/>
<rect x="169" y="168" width="140" height="10" rx="3" fill="url(#paint10_linear_281_523)"/>
<rect x="169" y="168" width="140" height="10" rx="3" fill="url(#paint11_linear_281_523)"/>
<rect x="169" y="168" width="140" height="10" rx="3" fill="url(#paint12_linear_281_523)"/>
<rect x="169" y="148" width="70" height="10" rx="3" fill="url(#paint13_linear_281_523)"/>
<rect x="169" y="148" width="70" height="10" rx="3" fill="url(#paint14_linear_281_523)"/>
<rect x="169" y="148" width="70" height="10" rx="3" fill="url(#paint15_linear_281_523)"/>
<rect x="169" y="148" width="70" height="10" rx="3" fill="url(#paint16_linear_281_523)"/>
</g>
<line x1="126.75" y1="146" x2="126.75" y2="171" stroke="white" stroke-width="3"/>
<line x1="114" y1="158.25" x2="139" y2="158.25" stroke="white" stroke-width="3"/>
<line x1="89.0499" y1="218" x2="89.0499" y2="257" stroke="white" stroke-width="3"/>
<line x1="70" y1="237.95" x2="109" y2="237.95" stroke="white" stroke-width="3"/>
<line x1="110.65" y1="277" x2="110.65" y2="304" stroke="white" stroke-width="3"/>
<line x1="97" y1="290.35" x2="124" y2="290.35" stroke="white" stroke-width="3"/>
<line x1="411.65" y1="193" x2="411.65" y2="220" stroke="white" stroke-width="3"/>
<line x1="398" y1="206.35" x2="425" y2="206.35" stroke="white" stroke-width="3"/>
<line x1="382.95" y1="225" x2="382.95" y2="266" stroke="white" stroke-width="3"/>
<line x1="363" y1="246.05" x2="404" y2="246.05" stroke="white" stroke-width="3"/>
<path d="M116.69 101.203L72.0585 120.232C71.6842 120.394 71.3424 120.659 71.0786 120.993C70.8149 121.327 70.6417 121.714 70.582 122.102C70.5224 122.49 70.5791 122.86 70.7448 123.164C70.9104 123.468 71.177 123.69 71.5092 123.803L90.8443 130.368C91.2345 130.479 91.5311 130.754 91.6712 131.135L99.6551 149.929C99.7916 150.252 100.034 150.501 100.349 150.644C100.664 150.786 101.038 150.815 101.42 150.727C101.802 150.639 102.175 150.437 102.489 150.149C102.802 149.862 103.042 149.501 103.175 149.116L118.834 103.193C118.951 102.855 118.982 102.51 118.923 102.196C118.864 101.881 118.717 101.608 118.498 101.405C118.28 101.202 117.996 101.076 117.678 101.041C117.36 101.005 117.019 101.061 116.69 101.203Z" fill="white" stroke="black" stroke-width="3.5" stroke-linecap="round" stroke-linejoin="round"/>
<path d="M91.4364 130.559L102.859 118.253" stroke="black" stroke-width="3.5" stroke-linecap="round" stroke-linejoin="round"/>
<path d="M431.059 248.207L422.952 283.827C422.886 284.127 422.897 284.452 422.984 284.761C423.071 285.069 423.23 285.345 423.44 285.553C423.651 285.761 423.902 285.89 424.16 285.923C424.418 285.956 424.672 285.892 424.887 285.739L437.429 276.847C437.669 276.658 437.968 276.599 438.262 276.682L453.249 280.113C453.506 280.172 453.765 280.135 453.991 280.006C454.217 279.876 454.4 279.661 454.515 279.389C454.63 279.117 454.672 278.801 454.635 278.482C454.597 278.164 454.483 277.859 454.307 277.607L433.219 247.778C433.064 247.557 432.868 247.386 432.65 247.284C432.432 247.181 432.201 247.149 431.98 247.193C431.76 247.237 431.558 247.354 431.396 247.532C431.234 247.711 431.117 247.944 431.059 248.207Z" fill="white" stroke="black" stroke-width="3.5" stroke-linecap="round" stroke-linejoin="round"/>
<path d="M437.807 276.571L435.348 264.171" stroke="black" stroke-width="3.5" stroke-linecap="round" stroke-linejoin="round"/>
<path d="M122 204.5C116.5 208 114 209.5 108 209.5C101 209.5 100.5 209.5 93.7972 206.025C90.627 204.851 88.5047 195.613 86.5 192.5C84.4952 189.387 84.5 182.803 84.5 179C86.5 173 90.7028 171 96.5 169.5C100.703 169.5 106.5 168 111.5 177.5C111.5 182.705 113.562 188.142 109.639 191.411C102.139 196.5 86.6392 200 82.6392 200C76.4496 200 73.0246 199.205 66.5 195C58.1668 189.63 57.5686 175.468 59.1362 166.062C59.9349 161.27 61.032 158.409 63.5414 154.376C65.5191 151.198 67.8729 149.192 70.3997 146.568C72.5665 144.318 70.3997 146.568 81 138.5" stroke="black" stroke-width="3.5" stroke-linecap="round" stroke-dasharray="7 7"/>
<path d="M360.869 298.547C365.359 308.753 369.57 308.696 378.047 308.58C385.632 306.537 386.256 307.72 392.481 304.988C398.707 302.257 401.187 300.304 404.203 297.955C407.943 292.944 407.393 288.966 405.635 284.256C403.498 281.513 401.74 276.803 391.666 279.408C387.538 282.623 382.179 284.636 381.581 289.215C381.359 297.253 386.464 309.53 388.497 312.141C391.644 316.18 400.172 318.125 409.436 317.998C416.173 317.906 421.016 314.735 427.677 307.902C431.071 304.421 432.46 300.553 434.382 296.424C435.897 293.17 436.291 290.395 437.087 287.125" stroke="black" stroke-width="3.5" stroke-linecap="round" stroke-dasharray="7 7"/>
<defs>
<linearGradient id="paint0_linear_281_523" x1="137.015" y1="381.144" x2="441.921" y2="180.16" gradientUnits="userSpaceOnUse">
<stop stop-color="#88BAFF"/>
<stop offset="1" stop-color="#CDAAFF"/>
</linearGradient>
<linearGradient id="paint1_linear_281_523" x1="239" y1="188" x2="239" y2="198" gradientUnits="userSpaceOnUse">
<stop stop-color="#050206"/>
<stop offset="1" stop-color="#4C9BFF"/>
</linearGradient>
<linearGradient id="paint2_linear_281_523" x1="239" y1="188" x2="239" y2="198" gradientUnits="userSpaceOnUse">
<stop stop-color="#050206"/>
<stop offset="1" stop-color="#4C9BFF"/>
</linearGradient>
<linearGradient id="paint3_linear_281_523" x1="239" y1="188" x2="239" y2="198" gradientUnits="userSpaceOnUse">
<stop stop-color="#050206"/>
<stop offset="1" stop-color="#4C9BFF"/>
</linearGradient>
<linearGradient id="paint4_linear_281_523" x1="262.5" y1="131" x2="169" y2="221" gradientUnits="userSpaceOnUse">
<stop stop-color="#BF4CFF"/>
<stop offset="1" stop-color="#4C9BFF"/>
</linearGradient>
<linearGradient id="paint5_linear_281_523" x1="239" y1="208" x2="239" y2="218" gradientUnits="userSpaceOnUse">
<stop stop-color="#050206"/>
<stop offset="1" stop-color="#4C9BFF"/>
</linearGradient>
<linearGradient id="paint6_linear_281_523" x1="239" y1="208" x2="239" y2="218" gradientUnits="userSpaceOnUse">
<stop stop-color="#050206"/>
<stop offset="1" stop-color="#4C9BFF"/>
</linearGradient>
<linearGradient id="paint7_linear_281_523" x1="239" y1="208" x2="239" y2="218" gradientUnits="userSpaceOnUse">
<stop stop-color="#050206"/>
<stop offset="1" stop-color="#4C9BFF"/>
</linearGradient>
<linearGradient id="paint8_linear_281_523" x1="261.5" y1="130" x2="169" y2="221" gradientUnits="userSpaceOnUse">
<stop stop-color="#BF4CFF"/>
<stop offset="1" stop-color="#4C9BFF"/>
</linearGradient>
<linearGradient id="paint9_linear_281_523" x1="239" y1="168" x2="239" y2="178" gradientUnits="userSpaceOnUse">
<stop stop-color="#050206"/>
<stop offset="1" stop-color="#4C9BFF"/>
</linearGradient>
<linearGradient id="paint10_linear_281_523" x1="239" y1="168" x2="239" y2="178" gradientUnits="userSpaceOnUse">
<stop stop-color="#050206"/>
<stop offset="1" stop-color="#4C9BFF"/>
</linearGradient>
<linearGradient id="paint11_linear_281_523" x1="239" y1="168" x2="239" y2="178" gradientUnits="userSpaceOnUse">
<stop stop-color="#050206"/>
<stop offset="1" stop-color="#4C9BFF"/>
</linearGradient>
<linearGradient id="paint12_linear_281_523" x1="261.5" y1="132.5" x2="169" y2="221" gradientUnits="userSpaceOnUse">
<stop stop-color="#BF4CFF"/>
<stop offset="1" stop-color="#4C9BFF"/>
</linearGradient>
<linearGradient id="paint13_linear_281_523" x1="204" y1="148" x2="204" y2="158" gradientUnits="userSpaceOnUse">
<stop stop-color="#050206"/>
<stop offset="1" stop-color="#4C9BFF"/>
</linearGradient>
<linearGradient id="paint14_linear_281_523" x1="204" y1="148" x2="204" y2="158" gradientUnits="userSpaceOnUse">
<stop stop-color="#050206"/>
<stop offset="1" stop-color="#4C9BFF"/>
</linearGradient>
<linearGradient id="paint15_linear_281_523" x1="204" y1="148" x2="204" y2="158" gradientUnits="userSpaceOnUse">
<stop stop-color="#050206"/>
<stop offset="1" stop-color="#4C9BFF"/>
</linearGradient>
<linearGradient id="paint16_linear_281_523" x1="288" y1="133.5" x2="169" y2="222.5" gradientUnits="userSpaceOnUse">
<stop stop-color="#BF4CFF"/>
<stop offset="1" stop-color="#4C9BFF"/>
</linearGradient>
<clipPath id="clip0_281_523">
<rect width="232" height="83" fill="white" transform="translate(123 110)"/>
</clipPath>
</defs>
</svg>
